<mxfile host="app.diagrams.net" modified="2022-10-31T14:41:51.340Z" agent="5.0 (Windows NT 10.0; Win64; x64) AppleWebKit/537.36 (KHTML, like Gecko) Chrome/107.0.0.0 Safari/537.36 Edg/107.0.1418.26" etag="qK6sPSPIukkrOeZruugf" version="20.5.1" type="github">
  <diagram id="93oYXS6F0fWZ3KI0hVY3" name="第 1 页">
    <mxGraphModel dx="1550" dy="859" grid="1" gridSize="10" guides="1" tooltips="1" connect="1" arrows="1" fold="1" page="1" pageScale="1" pageWidth="827" pageHeight="1169" math="0" shadow="0">
      <root>
        <mxCell id="0" />
        <mxCell id="1" parent="0" />
        <mxCell id="kxQVH_WQUYWZ8Yr4E01S-1" value="当第三方类的调用非常复杂且庞大的时候，可以将涉及第三方的代码全部整理到一个类上，这样就避免了业务代码和第三方代码的耦合度过高的情况。这个就是外观模式" style="shape=note;whiteSpace=wrap;html=1;backgroundOutline=1;darkOpacity=0.05;align=left;" vertex="1" parent="1">
          <mxGeometry x="158" y="30" width="460" height="70" as="geometry" />
        </mxCell>
        <mxCell id="kxQVH_WQUYWZ8Yr4E01S-10" value="ThirdService" style="swimlane;fontStyle=1;align=center;verticalAlign=top;childLayout=stackLayout;horizontal=1;startSize=26;horizontalStack=0;resizeParent=1;resizeParentMax=0;resizeLast=0;collapsible=1;marginBottom=0;" vertex="1" parent="1">
          <mxGeometry x="562" y="255" width="160" height="60" as="geometry" />
        </mxCell>
        <mxCell id="kxQVH_WQUYWZ8Yr4E01S-12" value="" style="line;strokeWidth=1;fillColor=none;align=left;verticalAlign=middle;spacingTop=-1;spacingLeft=3;spacingRight=3;rotatable=0;labelPosition=right;points=[];portConstraint=eastwest;strokeColor=inherit;" vertex="1" parent="kxQVH_WQUYWZ8Yr4E01S-10">
          <mxGeometry y="26" width="160" height="8" as="geometry" />
        </mxCell>
        <mxCell id="kxQVH_WQUYWZ8Yr4E01S-13" value="...." style="text;strokeColor=none;fillColor=none;align=left;verticalAlign=top;spacingLeft=4;spacingRight=4;overflow=hidden;rotatable=0;points=[[0,0.5],[1,0.5]];portConstraint=eastwest;" vertex="1" parent="kxQVH_WQUYWZ8Yr4E01S-10">
          <mxGeometry y="34" width="160" height="26" as="geometry" />
        </mxCell>
        <mxCell id="kxQVH_WQUYWZ8Yr4E01S-14" value="Facade" style="swimlane;fontStyle=1;align=center;verticalAlign=top;childLayout=stackLayout;horizontal=1;startSize=26;horizontalStack=0;resizeParent=1;resizeParentMax=0;resizeLast=0;collapsible=1;marginBottom=0;" vertex="1" parent="1">
          <mxGeometry x="249" y="259" width="160" height="86" as="geometry" />
        </mxCell>
        <mxCell id="kxQVH_WQUYWZ8Yr4E01S-15" value="- linksToSubsystemObjects" style="text;strokeColor=none;fillColor=none;align=left;verticalAlign=top;spacingLeft=4;spacingRight=4;overflow=hidden;rotatable=0;points=[[0,0.5],[1,0.5]];portConstraint=eastwest;" vertex="1" parent="kxQVH_WQUYWZ8Yr4E01S-14">
          <mxGeometry y="26" width="160" height="26" as="geometry" />
        </mxCell>
        <mxCell id="kxQVH_WQUYWZ8Yr4E01S-16" value="" style="line;strokeWidth=1;fillColor=none;align=left;verticalAlign=middle;spacingTop=-1;spacingLeft=3;spacingRight=3;rotatable=0;labelPosition=right;points=[];portConstraint=eastwest;strokeColor=inherit;" vertex="1" parent="kxQVH_WQUYWZ8Yr4E01S-14">
          <mxGeometry y="52" width="160" height="8" as="geometry" />
        </mxCell>
        <mxCell id="kxQVH_WQUYWZ8Yr4E01S-17" value="+ subsystemOperator()" style="text;strokeColor=none;fillColor=none;align=left;verticalAlign=top;spacingLeft=4;spacingRight=4;overflow=hidden;rotatable=0;points=[[0,0.5],[1,0.5]];portConstraint=eastwest;" vertex="1" parent="kxQVH_WQUYWZ8Yr4E01S-14">
          <mxGeometry y="60" width="160" height="26" as="geometry" />
        </mxCell>
        <mxCell id="kxQVH_WQUYWZ8Yr4E01S-18" value="Client" style="html=1;" vertex="1" parent="1">
          <mxGeometry x="39" y="288" width="110" height="50" as="geometry" />
        </mxCell>
        <mxCell id="kxQVH_WQUYWZ8Yr4E01S-19" value="ThirdService" style="swimlane;fontStyle=1;align=center;verticalAlign=top;childLayout=stackLayout;horizontal=1;startSize=26;horizontalStack=0;resizeParent=1;resizeParentMax=0;resizeLast=0;collapsible=1;marginBottom=0;" vertex="1" parent="1">
          <mxGeometry x="602" y="285" width="160" height="60" as="geometry" />
        </mxCell>
        <mxCell id="kxQVH_WQUYWZ8Yr4E01S-20" value="" style="line;strokeWidth=1;fillColor=none;align=left;verticalAlign=middle;spacingTop=-1;spacingLeft=3;spacingRight=3;rotatable=0;labelPosition=right;points=[];portConstraint=eastwest;strokeColor=inherit;" vertex="1" parent="kxQVH_WQUYWZ8Yr4E01S-19">
          <mxGeometry y="26" width="160" height="8" as="geometry" />
        </mxCell>
        <mxCell id="kxQVH_WQUYWZ8Yr4E01S-21" value="...." style="text;strokeColor=none;fillColor=none;align=left;verticalAlign=top;spacingLeft=4;spacingRight=4;overflow=hidden;rotatable=0;points=[[0,0.5],[1,0.5]];portConstraint=eastwest;" vertex="1" parent="kxQVH_WQUYWZ8Yr4E01S-19">
          <mxGeometry y="34" width="160" height="26" as="geometry" />
        </mxCell>
        <mxCell id="kxQVH_WQUYWZ8Yr4E01S-22" value="ThirdService" style="swimlane;fontStyle=1;align=center;verticalAlign=top;childLayout=stackLayout;horizontal=1;startSize=26;horizontalStack=0;resizeParent=1;resizeParentMax=0;resizeLast=0;collapsible=1;marginBottom=0;" vertex="1" parent="1">
          <mxGeometry x="549" y="311" width="160" height="60" as="geometry" />
        </mxCell>
        <mxCell id="kxQVH_WQUYWZ8Yr4E01S-23" value="" style="line;strokeWidth=1;fillColor=none;align=left;verticalAlign=middle;spacingTop=-1;spacingLeft=3;spacingRight=3;rotatable=0;labelPosition=right;points=[];portConstraint=eastwest;strokeColor=inherit;" vertex="1" parent="kxQVH_WQUYWZ8Yr4E01S-22">
          <mxGeometry y="26" width="160" height="8" as="geometry" />
        </mxCell>
        <mxCell id="kxQVH_WQUYWZ8Yr4E01S-24" value="...." style="text;strokeColor=none;fillColor=none;align=left;verticalAlign=top;spacingLeft=4;spacingRight=4;overflow=hidden;rotatable=0;points=[[0,0.5],[1,0.5]];portConstraint=eastwest;" vertex="1" parent="kxQVH_WQUYWZ8Yr4E01S-22">
          <mxGeometry y="34" width="160" height="26" as="geometry" />
        </mxCell>
        <mxCell id="kxQVH_WQUYWZ8Yr4E01S-25" value="" style="ellipse;whiteSpace=wrap;html=1;dashed=1;strokeColor=#FF6666;fillColor=none;" vertex="1" parent="1">
          <mxGeometry x="509" y="220" width="280" height="190" as="geometry" />
        </mxCell>
        <mxCell id="kxQVH_WQUYWZ8Yr4E01S-26" value="Use" style="endArrow=open;endSize=12;dashed=1;html=1;rounded=0;" edge="1" parent="1">
          <mxGeometry width="160" relative="1" as="geometry">
            <mxPoint x="411" y="300" as="sourcePoint" />
            <mxPoint x="561" y="290" as="targetPoint" />
          </mxGeometry>
        </mxCell>
        <mxCell id="kxQVH_WQUYWZ8Yr4E01S-27" value="Use" style="endArrow=open;endSize=12;dashed=1;html=1;rounded=0;entryX=0.293;entryY=0.684;entryDx=0;entryDy=0;entryPerimeter=0;" edge="1" parent="1" target="kxQVH_WQUYWZ8Yr4E01S-25">
          <mxGeometry width="160" relative="1" as="geometry">
            <mxPoint x="421" y="330" as="sourcePoint" />
            <mxPoint x="571" y="300" as="targetPoint" />
          </mxGeometry>
        </mxCell>
        <mxCell id="kxQVH_WQUYWZ8Yr4E01S-28" value="Use" style="endArrow=open;endSize=12;dashed=1;html=1;rounded=0;" edge="1" parent="1">
          <mxGeometry width="160" relative="1" as="geometry">
            <mxPoint x="421" y="310" as="sourcePoint" />
            <mxPoint x="581" y="310" as="targetPoint" />
          </mxGeometry>
        </mxCell>
        <mxCell id="kxQVH_WQUYWZ8Yr4E01S-29" value="" style="endArrow=open;endFill=1;endSize=12;html=1;rounded=0;" edge="1" parent="1">
          <mxGeometry width="160" relative="1" as="geometry">
            <mxPoint x="151" y="310" as="sourcePoint" />
            <mxPoint x="251" y="310" as="targetPoint" />
          </mxGeometry>
        </mxCell>
      </root>
    </mxGraphModel>
  </diagram>
</mxfile>
